<svg width="141" height="158" viewBox="0 0 141 158" fill="none" xmlns="http://www.w3.org/2000/svg">
<path d="M24.7752 103.499C30.7771 103.499 35.6426 98.6517 35.6426 92.6728C35.6426 86.694 30.7771 81.8472 24.7752 81.8472C18.7732 81.8472 13.9077 86.694 13.9077 92.6728C13.9077 98.6517 18.7732 103.499 24.7752 103.499Z" fill="#DD9589"/>
<path d="M113.714 103.499C119.716 103.499 124.581 98.6517 124.581 92.6728C124.581 86.694 119.716 81.8472 113.714 81.8472C107.712 81.8472 102.846 86.694 102.846 92.6728C102.846 98.6517 107.712 103.499 113.714 103.499Z" fill="#DD9589"/>
<path d="M24.7751 100.761C29.2593 100.761 32.8945 97.1396 32.8945 92.6726C32.8945 88.2057 29.2593 84.5845 24.7751 84.5845C20.2909 84.5845 16.6558 88.2057 16.6558 92.6726C16.6558 97.1396 20.2909 100.761 24.7751 100.761Z" fill="#F9D2CB"/>
<path d="M113.714 100.761C118.198 100.761 121.833 97.1396 121.833 92.6726C121.833 88.2057 118.198 84.5845 113.714 84.5845C109.229 84.5845 105.594 88.2057 105.594 92.6726C105.594 97.1396 109.229 100.761 113.714 100.761Z" fill="#F9D2CB"/>
<path d="M23.6509 68.6572H115.087V112.458C115.087 137.593 94.6016 158 69.3691 158C44.1366 158 23.6509 137.593 23.6509 112.458V68.6572Z" fill="#8C8C8C"/>
<path d="M108.842 68.6572H29.8965V124.901H108.842V68.6572Z" fill="#F9D2CB"/>
<path d="M48.1813 104.245H90.8091C100.9 104.245 109.091 112.405 109.091 122.457V131.869H29.8965V122.457C29.8965 112.405 38.0883 104.245 48.1788 104.245H48.1813Z" fill="#8C8C8C"/>
<path d="M118.567 54.2229H20.1708C18.2295 54.2229 16.6558 55.7906 16.6558 57.7244V65.1556C16.6558 67.0894 18.2295 68.6571 20.1708 68.6571H118.567C120.509 68.6571 122.082 67.0894 122.082 65.1556V57.7244C122.082 55.7906 120.509 54.2229 118.567 54.2229Z" fill="#FF9400"/>
<path d="M140.07 26.1434C140.06 25.9766 140.048 25.8124 140.033 25.6506C140.01 25.2997 139.978 24.9488 139.938 24.6054C139.918 24.4212 139.893 24.2371 139.868 24.0504C139.825 23.7244 139.778 23.4009 139.725 23.0823C139.695 22.8982 139.663 22.7165 139.628 22.5348C139.566 22.2088 139.498 21.8828 139.426 21.5593C139.388 21.3925 139.353 21.2258 139.311 21.064C139.221 20.7032 139.123 20.3448 139.021 19.9914C138.986 19.8744 138.956 19.7525 138.918 19.633C138.624 18.6575 138.271 17.7018 137.874 16.7761C137.864 16.7512 137.849 16.7288 137.839 16.6989C137.652 16.2659 137.449 15.8378 137.24 15.4172C137.202 15.3451 137.162 15.2704 137.125 15.1982C136.932 14.82 136.735 14.4492 136.525 14.0808C136.485 14.0037 136.438 13.9315 136.393 13.8544C136.178 13.4786 135.951 13.1103 135.718 12.7494C135.683 12.6971 135.648 12.6424 135.613 12.5901C133.725 9.70577 131.311 7.1972 128.508 5.18886C127.034 4.13366 125.453 3.2253 123.784 2.46626C123.699 2.42893 123.617 2.38911 123.529 2.35178C123.264 2.23482 122.997 2.12283 122.727 2.01581C122.612 1.96853 122.495 1.92125 122.375 1.87645C122.12 1.77939 121.863 1.68233 121.605 1.58776C121.471 1.54048 121.331 1.4932 121.193 1.4484C120.943 1.36627 120.696 1.27917 120.444 1.20202C120.284 1.15225 120.124 1.11243 119.962 1.06764C119.572 0.955646 119.175 0.851121 118.777 0.75904C118.548 0.70429 118.318 0.647051 118.083 0.599766C117.896 0.562436 117.706 0.527595 117.521 0.492754C117.281 0.447958 117.039 0.403163 116.799 0.363344C116.614 0.335969 116.434 0.308593 116.249 0.281218C115.994 0.246377 115.737 0.211536 115.48 0.18416C115.305 0.164251 115.132 0.14683 114.958 0.129409C114.668 0.102034 114.378 0.0821258 114.091 0.0622165C113.943 0.0522619 113.798 0.0423071 113.649 0.0348411C113.209 0.0149318 112.767 0 112.324 0C111.458 0 110.603 0.0447953 109.756 0.121944C109.756 0.121944 109.819 0.209048 109.919 0.358368L109.107 0.121944C109.107 0.121944 119.357 14.377 110.688 25.3495C106.996 20.2502 102.361 15.8702 97.0351 12.4707L97.0176 12.4607C96.6179 12.2044 96.2081 11.953 95.7984 11.7067C95.7809 11.6967 95.7634 11.6867 95.7459 11.6743C95.3462 11.4354 94.944 11.2015 94.5368 10.9725C94.5093 10.9576 94.4818 10.9401 94.4569 10.9277C94.0596 10.7062 93.6599 10.4897 93.2577 10.2782L93.1328 10.2159C92.743 10.0144 92.3483 9.81279 91.9511 9.62365C91.8961 9.59627 91.8437 9.57138 91.7862 9.5465C91.399 9.36234 91.0117 9.17818 90.622 9.00148C90.5546 8.96913 90.4871 8.94176 90.4197 8.91189C90.0399 8.74266 89.6577 8.57592 89.273 8.41665C89.193 8.38181 89.1081 8.34945 89.0256 8.3171C88.6534 8.16529 88.2812 8.01597 87.9039 7.87163C87.804 7.8343 87.7016 7.79946 87.6041 7.75964C87.2419 7.62525 86.8796 7.49336 86.5174 7.36395C86.3974 7.32164 86.28 7.2868 86.1626 7.24698C85.8104 7.13001 85.4581 7.01056 85.1058 6.90105C84.9734 6.85875 84.841 6.82142 84.7086 6.78409C84.3664 6.67956 84.0216 6.57504 83.6768 6.47798C83.5294 6.43568 83.3795 6.39835 83.2321 6.36102C82.8974 6.27142 82.5651 6.17934 82.2279 6.09721C82.0605 6.05491 81.8931 6.02007 81.7307 5.98025C81.4109 5.9031 81.0886 5.82844 80.7664 5.75378C80.5815 5.71147 80.3941 5.67663 80.2093 5.64179C79.8995 5.57958 79.5922 5.51238 79.2824 5.45514C79.08 5.41781 78.8752 5.38546 78.6728 5.35062C78.3755 5.29835 78.0832 5.2461 77.7834 5.2013C77.5561 5.16646 77.3313 5.13908 77.1039 5.10673C76.8241 5.0694 76.5468 5.02709 76.267 4.99225C76.0222 4.9599 75.7798 4.93999 75.535 4.91261C75.2702 4.88524 75.0054 4.8504 74.738 4.82551C74.4632 4.80062 74.1884 4.7832 73.9086 4.76329C73.6688 4.74587 73.4315 4.72099 73.1916 4.70855C72.8619 4.68864 72.5271 4.67619 72.1923 4.66375C72.0075 4.65628 71.8201 4.64384 71.6352 4.63886C71.1131 4.62144 70.5884 4.61398 70.0638 4.61398C69.5392 4.61398 69.0145 4.62144 68.4924 4.63886C68.305 4.64633 68.1201 4.65628 67.9353 4.66375C67.6005 4.67868 67.2657 4.69112 66.936 4.70855C66.6961 4.72348 66.4588 4.74587 66.219 4.76329C65.9442 4.7832 65.6644 4.80062 65.3945 4.82551C65.1272 4.8504 64.8624 4.88026 64.5976 4.91261C64.3528 4.93999 64.1054 4.96239 63.8656 4.99225C63.5858 5.02709 63.3085 5.0694 63.0287 5.10673C62.8013 5.13908 62.5765 5.16646 62.3492 5.2013C62.0544 5.2461 61.7571 5.30333 61.4598 5.35062C61.2574 5.38546 61.0526 5.41781 60.8502 5.45514C60.5404 5.50989 60.2331 5.57709 59.9234 5.64179C59.7385 5.67912 59.5511 5.71396 59.3662 5.75378C59.0415 5.82346 58.7217 5.90061 58.4044 5.97527C58.237 6.0126 58.0696 6.05242 57.9023 6.09224C57.5675 6.17685 57.2327 6.26645 56.903 6.35604C56.7531 6.39834 56.6032 6.43319 56.4583 6.473C56.1135 6.57006 55.7687 6.67458 55.4265 6.77911C55.2941 6.82142 55.1617 6.85626 55.0293 6.89608C54.6745 7.00807 54.3247 7.12503 53.9725 7.242C53.8551 7.28431 53.7352 7.31915 53.6177 7.35897C53.253 7.48838 52.8907 7.62028 52.531 7.75466C52.4311 7.79199 52.3286 7.82683 52.2312 7.86665C51.854 8.00851 51.4817 8.15783 51.1095 8.31212C51.027 8.34696 50.9446 8.37932 50.8622 8.41167C50.4749 8.57094 50.0952 8.73768 49.7155 8.90691C49.648 8.93927 49.5805 8.96664 49.5131 8.99651C49.1234 9.1732 48.7336 9.35487 48.3489 9.54152C48.2939 9.5689 48.2415 9.59378 48.184 9.61867C47.7868 9.81279 47.3921 10.0119 47.0023 10.2159C46.9599 10.2359 46.9224 10.2583 46.8799 10.2782C46.4752 10.4897 46.0755 10.7062 45.6783 10.9277C45.6508 10.9426 45.6233 10.9551 45.5983 10.9725C45.1911 11.199 44.7889 11.4354 44.3891 11.6743C44.3717 11.6843 44.3542 11.6942 44.3367 11.7067C43.9245 11.953 43.5223 12.2019 43.1175 12.4607L43.1 12.4707C37.7762 15.8727 33.142 20.2502 29.447 25.3495C20.7581 14.3845 31.0109 0.124433 31.0109 0.124433L30.199 0.360855C30.2989 0.211535 30.3614 0.124433 30.3614 0.124433C29.5145 0.0472845 28.6601 0.00248919 27.7932 0.00248919C27.346 0.00248919 26.9088 0.017421 26.4691 0.0373303C26.3217 0.0447963 26.1768 0.054751 26.0269 0.0647057C25.7371 0.0821263 25.4498 0.102035 25.16 0.131899C24.9851 0.149319 24.8128 0.16674 24.6379 0.186649C24.3806 0.214025 24.1257 0.248866 23.8684 0.283707C23.6835 0.311082 23.4987 0.335969 23.3188 0.365833C23.079 0.403163 22.8366 0.447958 22.5968 0.495243C22.4094 0.530084 22.2196 0.564925 22.0322 0.602255C21.7998 0.64954 21.57 0.706779 21.3377 0.761529C20.9404 0.856098 20.5432 0.958133 20.1535 1.07012C19.9936 1.11492 19.8337 1.15723 19.6713 1.20451C19.4165 1.28166 19.1692 1.36627 18.9193 1.45089C18.7844 1.49568 18.6445 1.54048 18.5071 1.59025C18.2498 1.67985 17.9925 1.7769 17.7377 1.87894C17.6203 1.92373 17.5053 1.96853 17.3854 2.0183C17.1181 2.12531 16.8483 2.2373 16.5835 2.35427C16.501 2.3916 16.4136 2.43142 16.3287 2.46875C14.6598 3.22282 13.0784 4.13615 11.6044 5.19134C8.79888 7.1972 6.38806 9.70826 4.49937 12.5926C4.4644 12.6449 4.42942 12.6996 4.39444 12.7519C4.16211 13.1152 3.93477 13.4836 3.71742 13.8569C3.67245 13.934 3.62998 14.0062 3.58501 14.0833C3.37516 14.4516 3.17779 14.8225 2.98542 15.2007C2.94795 15.2729 2.90798 15.3476 2.873 15.4197C2.66315 15.8403 2.46579 16.2659 2.27592 16.7014C2.26593 16.7288 2.25094 16.7537 2.24094 16.7785C1.84122 17.7043 1.49147 18.66 1.19667 19.6355C1.16169 19.7525 1.12922 19.8744 1.09424 19.9939C0.989314 20.3473 0.89188 20.7057 0.804441 21.0665C0.761971 21.2308 0.726993 21.3975 0.689519 21.5617C0.61707 21.8853 0.547119 22.2113 0.487161 22.5373C0.452185 22.7165 0.422206 22.9006 0.389729 23.0848C0.334767 23.4083 0.287302 23.7294 0.247329 24.0529C0.222347 24.2371 0.199863 24.4212 0.177378 24.6079C0.139904 24.9538 0.109924 25.3047 0.0824432 25.6531C0.0724501 25.8149 0.0549638 25.9766 0.0449707 26.1434C0.0174898 26.656 0 27.1737 0 27.6913C0 31.611 0.819432 35.339 2.29341 38.7161C2.5907 39.393 2.91048 40.0525 3.25524 40.6971C3.43012 41.0206 3.60749 41.3391 3.79237 41.6552C6.65288 46.518 10.9624 50.4302 16.1313 52.8143C16.556 53.0109 16.9857 53.2001 17.4229 53.3743C18.2148 53.6903 19.0218 53.9741 19.8487 54.2204H120.259C121.086 53.9741 121.893 53.6928 122.685 53.3743C123.119 53.2001 123.552 53.0085 123.976 52.8143C129.143 50.4302 133.457 46.5205 136.315 41.6552C136.5 41.3391 136.683 41.0206 136.852 40.6971C137.197 40.0525 137.517 39.388 137.814 38.7161C139.288 35.339 140.108 31.611 140.108 27.6913C140.108 27.1712 140.09 26.6535 140.063 26.1434H140.07Z" fill="#FF9400"/>
<path d="M56.0535 77.9549C56.0959 77.7683 56.1159 77.5767 56.1159 77.3776C56.1159 75.8669 54.8893 74.645 53.3728 74.645H39.1977C38.4107 74.645 37.7062 74.9785 37.2041 75.5086C37.0966 75.6231 36.9942 75.745 36.9068 75.8769C36.622 76.3074 36.4546 76.8201 36.4546 77.3776C36.4546 77.935 36.622 78.4477 36.9068 78.8782C37.3989 79.6223 38.2384 80.1101 39.1952 80.1101H53.3703C54.6869 80.1126 55.7862 79.1868 56.051 77.9549H56.0535Z" fill="black"/>
<path d="M46.9576 85.0874C45.4186 85.0874 44.0596 85.8464 43.2327 87.0111C42.703 87.7528 42.3857 88.6636 42.3857 89.6466C42.3857 92.1627 44.4318 94.2009 46.9576 94.2009C49.4833 94.2009 51.5294 92.1602 51.5294 89.6466C51.5294 88.6636 51.2171 87.7577 50.6825 87.0111C49.8531 85.8489 48.494 85.0874 46.9576 85.0874Z" fill="#400006"/>
<path d="M94.1023 99.5166C101.691 99.5166 107.843 93.3885 107.843 85.829C107.843 78.2695 101.691 72.1414 94.1023 72.1414C86.5136 72.1414 80.3618 78.2695 80.3618 85.829C80.3618 93.3885 86.5136 99.5166 94.1023 99.5166Z" fill="black"/>
<path d="M78.3628 121.666H60.8749C60.0471 121.666 59.376 122.334 59.376 123.159C59.376 123.983 60.0471 124.652 60.8749 124.652H78.3628C79.1906 124.652 79.8617 123.983 79.8617 123.159C79.8617 122.334 79.1906 121.666 78.3628 121.666Z" fill="black"/>
<path d="M57.6276 113.453C61.7669 113.453 65.1224 110.11 65.1224 105.987C65.1224 101.864 61.7669 98.521 57.6276 98.521C53.4883 98.521 50.1328 101.864 50.1328 105.987C50.1328 110.11 53.4883 113.453 57.6276 113.453Z" fill="#F9D2CB"/>
<path d="M57.6276 113.453C61.7669 113.453 65.1224 110.11 65.1224 105.987C65.1224 101.864 61.7669 98.521 57.6276 98.521C53.4883 98.521 50.1328 101.864 50.1328 105.987C50.1328 110.11 53.4883 113.453 57.6276 113.453Z" fill="#F9D2CB"/>
<path d="M81.6105 113.453C85.7498 113.453 89.1053 110.11 89.1053 105.987C89.1053 101.864 85.7498 98.521 81.6105 98.521C77.4713 98.521 74.1157 101.864 74.1157 105.987C74.1157 110.11 77.4713 113.453 81.6105 113.453Z" fill="#F9D2CB"/>
<path d="M69.6192 114.946C76.9319 114.946 82.86 109.041 82.86 101.756C82.86 94.4717 76.9319 88.5664 69.6192 88.5664C62.3065 88.5664 56.3784 94.4717 56.3784 101.756C56.3784 109.041 62.3065 114.946 69.6192 114.946Z" fill="#F9D2CB"/>
<path d="M52.9912 68.6174L109.095 97.5083L109.092 89.3305L68.8702 68.6174H52.9912Z" fill="black"/>
<path d="M118.57 54.2229H20.1708C18.2297 54.2229 16.6558 55.7908 16.6558 57.7244V59.4491H122.082V57.7244C122.082 55.7908 120.509 54.2229 118.567 54.2229H118.57Z" fill="#FFEAD1"/>
<path d="M118.57 68.6571H20.1708C18.2297 68.6571 16.6558 67.0892 16.6558 65.1555V63.4309H122.082V65.1555C122.082 67.0892 120.509 68.6571 118.567 68.6571H118.57Z" fill="#9D5500"/>
<path d="M59.2512 14.9022C60.9759 14.9022 62.3741 13.5094 62.3741 11.7914C62.3741 10.0733 60.9759 8.68054 59.2512 8.68054C57.5266 8.68054 56.1284 10.0733 56.1284 11.7914C56.1284 13.5094 57.5266 14.9022 59.2512 14.9022Z" fill="#FFEAD1"/>
<path d="M69.6344 91.5528C73.794 91.5528 77.374 94.0215 78.9779 97.5704C79.2852 98.2473 80.0571 98.5833 80.7717 98.3667C81.6361 98.1054 82.0757 97.1473 81.706 96.3285C79.6299 91.7519 75.0057 88.5664 69.6369 88.5664C64.2681 88.5664 59.6438 91.7519 57.5678 96.3285C57.1955 97.1473 57.6377 98.1054 58.5021 98.3667C59.2166 98.5833 59.9886 98.2473 60.2959 97.5704C61.8998 94.024 65.4798 91.5528 69.6394 91.5528H69.6344Z" fill="white"/>
<path d="M89.0982 106.345C88.9208 110.131 85.8404 113.229 82.0431 113.44C80.4042 113.533 78.8678 113.099 77.5937 112.286C75.3752 113.956 72.6146 114.946 69.6192 114.946C66.6238 114.946 63.8632 113.956 61.6448 112.286C60.3706 113.099 58.8342 113.533 57.1978 113.44C53.4005 113.229 50.3201 110.131 50.1427 106.345C49.9779 102.839 52.2388 99.8374 55.3991 98.8569C56.0187 98.6653 56.6182 99.1729 56.5233 99.8125C56.5233 99.8175 56.5233 99.825 56.5208 99.83C56.4708 100.161 56.2285 100.425 55.9087 100.524C53.5004 101.278 51.7741 103.568 51.8915 106.241C52.0089 108.914 54.1799 111.347 56.9505 111.669C58.1447 111.808 59.2839 111.574 60.2532 111.076C60.8603 110.768 61.4049 110.352 61.8596 109.854C62.2818 110.257 62.734 110.626 63.2162 110.957C65.0324 112.216 67.2434 112.953 69.6217 112.953C72.0001 112.953 74.211 112.216 76.0272 110.957C76.5094 110.626 76.9616 110.257 77.3838 109.854C77.8385 110.352 78.3831 110.768 78.9902 111.076C79.962 111.576 81.1012 111.808 82.2954 111.669C85.066 111.347 87.2345 109.016 87.3544 106.241C87.4743 103.466 85.7455 101.278 83.3372 100.524C83.0174 100.425 82.7726 100.161 82.7251 99.83C82.7251 99.825 82.7251 99.8175 82.7226 99.8125C82.6277 99.1754 83.2297 98.6653 83.8468 98.8569C87.0046 99.8349 89.2656 102.839 89.1032 106.343L89.0982 106.345Z" fill="#D57262"/>
<path d="M68.8698 14.1554C77.4613 14.1554 85.4333 16.7909 92.0212 21.2929C92.9781 21.9474 94.2272 21.9872 95.2265 21.3999C97.1252 20.2875 97.2051 17.5922 95.3889 16.3529C87.8416 11.1989 78.7105 8.18262 68.8698 8.18262C68.2602 8.18262 67.6532 8.19506 67.0511 8.21746C65.0625 8.29461 63.7109 10.2606 64.338 12.1421C64.7602 13.4138 65.9818 14.2375 67.3259 14.1853C67.838 14.1654 68.3552 14.1554 68.8723 14.1554H68.8698Z" fill="#FFEAD1"/>
<path d="M131.044 21.2481C129.91 21.3825 128.863 20.6433 128.593 19.5384C127.384 14.6034 123.887 11.0993 117.334 8.24484C116.237 7.76702 115.72 6.51025 116.149 5.39781V5.39035C116.609 4.20575 117.966 3.63087 119.135 4.13855C124.663 6.54011 130.997 10.5892 132.96 18.4931C133.285 19.7972 132.386 21.0913 131.044 21.2506V21.2481Z" fill="#FFEAD1"/>
<path d="M18.7668 19.1951C17.9423 15.9399 18.462 12.0875 20.3107 7.87916C17.2228 8.82734 14.6371 11.2488 13.2106 12.8216C12.4886 13.6155 11.287 13.7449 10.4101 13.1253H10.4076C9.36581 12.3861 9.21341 10.9128 10.0703 9.97213C11.964 7.88912 15.4915 4.65884 19.921 3.60365C21.3875 3.25275 22.8989 3.76292 23.8607 4.93259C24.8425 6.12466 25.0499 7.72984 24.4053 9.12598C23.2312 11.6644 22.1269 15.1162 22.8714 18.1175C23.1088 19.0781 22.6791 20.0761 21.7997 20.534C20.593 21.1587 19.099 20.5141 18.7668 19.2001V19.1951Z" fill="#FFEAD1"/>
</svg>
