<svg width="250" height="54" viewBox="0 0 250 54" fill="none" xmlns="http://www.w3.org/2000/svg">
<path d="M87.1377 15.3177C90.335 15.3177 93.086 16.4699 95.3872 18.7744C97.6885 21.0788 98.8392 23.8901 98.8392 27.2052C98.8392 30.5203 97.705 33.2691 95.4335 35.5439C93.162 37.8187 90.4077 38.9577 87.1674 38.9577C83.9271 38.9577 80.9547 37.789 78.7096 35.455C76.4645 33.1177 75.3403 30.3425 75.3403 27.1295C75.3403 24.9765 75.8627 22.998 76.9076 21.1907C77.9524 19.3834 79.3907 17.9546 81.2225 16.8979C83.0509 15.8412 85.0249 15.3145 87.1344 15.3145L87.1377 15.3177ZM87.0914 19.5085C84.9984 19.5085 83.2394 20.2327 81.8143 21.6812C80.3893 23.1297 79.6751 24.9699 79.6751 27.2052C79.6751 29.694 80.5711 31.6626 82.3665 33.1111C83.7618 34.2435 85.3621 34.8098 87.1674 34.8098C89.2075 34.8098 90.9467 34.0756 92.3817 32.6074C93.8167 31.1392 94.5342 29.3286 94.5342 27.1756C94.5342 25.0226 93.8101 23.2186 92.3652 21.7372C90.9202 20.2525 89.1612 19.5118 87.0881 19.5118L87.0914 19.5085Z" fill="#4445ED"/>
<path d="M114.78 15.3174H118.976V38.3944H114.78V36.6332C113.96 37.4101 113.14 37.9664 112.317 38.3088C111.494 38.6512 110.601 38.8224 109.639 38.8224C107.48 38.8224 105.612 37.9895 104.035 36.3204C102.457 34.6514 101.67 32.5774 101.67 30.1018C101.67 27.6262 102.434 25.4239 103.958 23.7811C105.483 22.1384 107.334 21.3187 109.517 21.3187C110.518 21.3187 111.461 21.5064 112.34 21.885C113.22 22.2635 114.033 22.8298 114.78 23.5836V15.3207V15.3174ZM110.37 25.1704C109.074 25.1704 107.996 25.628 107.136 26.5399C106.28 27.4517 105.85 28.6237 105.85 30.0524C105.85 31.4812 106.286 32.6729 107.159 33.6012C108.032 34.5296 109.107 34.9937 110.383 34.9937C111.659 34.9937 112.793 34.5362 113.66 33.6243C114.526 32.7124 114.962 31.5141 114.962 30.036C114.962 28.5579 114.529 27.4155 113.66 26.5168C112.79 25.6181 111.692 25.1704 110.366 25.1704H110.37Z" fill="#4445ED"/>
<path d="M124.853 14.8857C125.587 14.8857 126.219 15.1524 126.745 15.6824C127.27 16.2124 127.535 16.8544 127.535 17.6115C127.535 18.3687 127.274 18.9909 126.755 19.5176C126.236 20.0443 125.611 20.3044 124.887 20.3044C124.162 20.3044 123.504 20.0377 122.979 19.5011C122.453 18.9645 122.188 18.316 122.188 17.549C122.188 16.7819 122.45 16.1861 122.969 15.6659C123.491 15.1458 124.119 14.8857 124.853 14.8857ZM122.757 21.743H126.953V38.3907H122.757V21.743Z" fill="#4445ED"/>
<path d="M130.764 21.7429H134.959V23.4482C135.912 22.6482 136.771 22.0951 137.545 21.7824C138.319 21.4697 139.109 21.3149 139.916 21.3149C141.572 21.3149 142.981 21.891 144.135 23.0432C145.107 24.0243 145.593 25.4728 145.593 27.3887V38.3906H141.443V31.0988C141.443 29.1104 141.354 27.7936 141.176 27.1385C140.997 26.4867 140.686 25.9896 140.24 25.6472C139.797 25.3049 139.245 25.1337 138.593 25.1337C137.743 25.1337 137.016 25.4168 136.408 25.983C135.799 26.5492 135.376 27.3294 135.141 28.3302C135.019 28.8504 134.956 29.9762 134.956 31.7078V38.3873H130.76V21.7396L130.764 21.7429Z" fill="#4445ED"/>
<path d="M157.208 15.8833H161.441L164.707 30.2529L168.745 15.8833H172.322L176.419 30.2529L179.656 15.8833H183.888L178.793 38.3941H174.666L170.5 23.8401L166.414 38.3941H162.327L157.208 15.8833Z" fill="#4445ED"/>
<path d="M199.127 21.7429H203.323V38.3906H199.127V36.6294C198.307 37.4063 197.487 37.9627 196.664 38.305C195.841 38.6474 194.948 38.8186 193.986 38.8186C191.827 38.8186 189.958 37.9857 188.381 36.3166C186.804 34.6476 186.017 32.5736 186.017 30.098C186.017 27.6224 186.781 25.4201 188.305 23.7774C189.829 22.1347 191.681 21.3149 193.863 21.3149C194.865 21.3149 195.807 21.5026 196.687 21.8812C197.566 22.2597 198.38 22.826 199.127 23.5798V21.7429ZM194.716 25.1699C193.42 25.1699 192.342 25.6275 191.483 26.5394C190.626 27.4513 190.196 28.6232 190.196 30.0519C190.196 31.4807 190.633 32.6724 191.506 33.6007C192.379 34.5291 193.453 34.9933 194.73 34.9933C196.006 34.9933 197.14 34.5357 198.006 33.6238C198.873 32.7119 199.309 31.5136 199.309 30.0355C199.309 28.5574 198.876 27.415 198.006 26.5163C197.137 25.6176 196.039 25.1699 194.713 25.1699H194.716Z" fill="#4445ED"/>
<path d="M207.101 15.3174H211.297V38.3944H207.101V15.3174Z" fill="#4445ED"/>
<path d="M214.651 15.3174H218.847V38.3944H214.651V15.3174Z" fill="#4445ED"/>
<path d="M239.408 31.2766H225.928C226.123 32.4617 226.642 33.4032 227.489 34.1011C228.335 34.799 229.413 35.148 230.726 35.148C232.293 35.148 233.642 34.6015 234.766 33.5119L238.301 35.1644C237.418 36.4088 236.363 37.3306 235.133 37.9264C233.903 38.5223 232.445 38.8219 230.752 38.8219C228.13 38.8219 225.994 37.9989 224.344 36.3496C222.694 34.7003 221.871 32.6395 221.871 30.1606C221.871 27.6817 222.694 25.5123 224.338 23.8333C225.981 22.1544 228.044 21.3149 230.524 21.3149C233.156 21.3149 235.299 22.1544 236.948 23.8333C238.598 25.5123 239.422 27.7278 239.422 30.4832L239.405 31.2799L239.408 31.2766ZM235.213 27.9846C234.935 27.0562 234.389 26.3023 233.573 25.7197C232.756 25.137 231.81 24.8473 230.732 24.8473C229.562 24.8473 228.537 25.1732 227.654 25.825C227.099 26.2332 226.586 26.9509 226.113 27.9813H235.213V27.9846Z" fill="#4445ED"/>
<path d="M243.314 15.6064H247.51V21.7428H250V25.3376H247.51V38.3905H243.314V25.3376H241.162V21.7428H243.314V15.6064Z" fill="#4445ED"/>
<path d="M18.398 27.2576C18.8477 27.2576 19.2213 26.9415 19.3106 26.5235C19.3238 26.4609 19.3304 26.3951 19.3304 26.3292C19.3304 25.8157 18.9138 25.4009 18.398 25.4009H13.5739C13.3061 25.4009 13.0647 25.5161 12.8961 25.6939C12.8597 25.7334 12.8233 25.7729 12.7936 25.819C12.6977 25.9638 12.6382 26.1416 12.6382 26.3292C12.6382 26.5169 12.6944 26.6913 12.7936 26.8395C12.9589 27.093 13.2466 27.2576 13.5739 27.2576H18.398Z" fill="#4445ED"/>
<path d="M40.9646 28.1634V24.8911H37.3507C37.3573 25.0491 37.3606 25.2071 37.3606 25.3651V30.3921L36.8183 30.1122C36.8745 29.8225 36.9076 29.523 36.9076 29.2168C36.9076 26.6589 34.8245 24.5816 32.2521 24.5816C30.923 24.5816 29.726 25.138 28.8796 26.0268L23.6719 23.3471H40.8819V19.9136H6.7926V23.3471H18.2659L21.374 24.9471L27.7091 28.2062C27.6364 28.5321 27.5967 28.8678 27.5967 29.2168C27.5967 31.7747 29.6797 33.852 32.2521 33.852C33.621 33.852 34.8543 33.2627 35.7074 32.3245L37.3639 33.1771V37.302C37.3639 38.1711 37.2779 39.0171 37.1192 39.8401C36.3488 37.3119 33.9913 35.4749 31.2007 35.4749H30.4997C30.1889 34.5466 29.4251 33.8223 28.4531 33.5721C27.9406 31.5344 26.0691 30.0497 23.9232 30.0497C21.7774 30.0497 19.9059 31.5344 19.3934 33.5721C18.4213 33.8223 17.6575 34.5466 17.3467 35.4749H16.6458C13.8221 35.4749 11.4414 37.3612 10.7008 39.9356C10.5289 39.083 10.4396 38.204 10.4396 37.302V25.3717C10.4396 25.3717 10.4396 25.352 10.4396 25.3421C10.4396 25.194 10.4429 25.0458 10.4495 24.8977H6.88187V28.1996C5.84035 28.8613 5.146 30.0201 5.146 31.3369C5.146 33.1738 6.49171 34.7013 8.25074 35.0009V38.2698C8.25074 46.8752 15.2571 53.8509 23.9001 53.8509C32.5431 53.8509 39.5494 46.8752 39.5494 38.2698V34.9581C39.8338 34.912 40.1049 34.8297 40.3661 34.7243C41.206 34.3787 41.8904 33.74 42.2905 32.9335C42.5385 32.4364 42.6773 31.88 42.6773 31.2908C42.6773 29.9806 41.9929 28.8316 40.9646 28.1666V28.1634ZM8.25074 33.7269C7.18276 33.447 6.38922 32.4825 6.38922 31.3303C6.38922 30.1781 7.13316 29.2695 8.15154 28.96H8.25074V33.7269ZM26.8792 42.4441H20.964C20.6631 42.4441 20.4184 42.2005 20.4184 41.9009C20.4184 41.6014 20.6631 41.3577 20.964 41.3577H26.8792C27.1801 41.3577 27.4247 41.6014 27.4247 41.9009C27.4247 42.2005 27.1801 42.4441 26.8792 42.4441ZM27.7025 38.1052C27.266 38.1052 26.8494 37.9406 26.532 37.6411L26.1782 37.3053L25.7682 37.5686C25.2194 37.9209 24.5812 38.1052 23.9232 38.1052C23.2653 38.1052 22.6271 37.9209 22.0782 37.5686L21.6682 37.3053L21.3145 37.6411C20.997 37.9406 20.5804 38.1052 20.144 38.1052C19.205 38.1052 18.4412 37.3448 18.4412 36.4099C18.4412 36.0642 18.547 35.7416 18.7255 35.4716C19 35.0601 19.4496 34.7737 19.982 34.721L20.468 34.675L20.5374 34.1943C20.7821 32.5384 22.2403 31.2875 23.9232 31.2875C25.6062 31.2875 27.0643 32.5384 27.309 34.1943L27.3818 34.675L27.8678 34.721C28.4001 34.7704 28.8498 35.0568 29.1243 35.4716C29.3028 35.7416 29.4086 36.0642 29.4086 36.4099C29.4086 37.3448 28.6448 38.1052 27.7058 38.1052H27.7025ZM41.1828 32.3574C40.8654 33.0092 40.2702 33.5063 39.5494 33.6874V28.9633H39.8007C40.753 29.3123 41.4341 30.2209 41.4341 31.2875C41.4341 31.6726 41.3448 32.0348 41.1861 32.3607L41.1828 32.3574Z" fill="#4445ED"/>
<path d="M16.2116 28.9497C15.6892 28.9497 15.2263 29.2098 14.942 29.6048C14.7601 29.8583 14.6543 30.1678 14.6543 30.5002C14.6543 31.3562 15.352 32.0508 16.2116 32.0508C17.0713 32.0508 17.769 31.3562 17.769 30.5002C17.769 30.1678 17.6632 29.8583 17.4813 29.6048C17.2003 29.2098 16.7373 28.9497 16.2116 28.9497Z" fill="#4445ED"/>
<path d="M47.6523 8.72383C47.6424 8.60532 47.6325 8.48681 47.6193 8.3683C47.6126 8.30575 47.6027 8.2432 47.5961 8.18065C47.5829 8.06872 47.5664 7.96009 47.5465 7.85145C47.5366 7.7889 47.5234 7.72636 47.5135 7.66381C47.4936 7.55188 47.4705 7.44324 47.444 7.33131C47.4308 7.27535 47.4176 7.21939 47.4043 7.16342C47.3746 7.04162 47.3415 6.91981 47.3051 6.79801C47.2919 6.7585 47.282 6.71571 47.2688 6.6762C47.1663 6.34371 47.0472 6.02109 46.9117 5.70506C46.9084 5.69518 46.9051 5.6886 46.8985 5.67872C46.8356 5.53058 46.7662 5.38573 46.6935 5.24418C46.6802 5.21784 46.667 5.1948 46.6538 5.16846C46.5877 5.04007 46.5215 4.91498 46.4488 4.78988C46.4356 4.76354 46.419 4.73721 46.4058 4.71416C46.3331 4.58577 46.2537 4.46068 46.1743 4.33887C46.1611 4.31912 46.1512 4.30266 46.138 4.28291C45.4965 3.30189 44.6732 2.44597 43.721 1.76452C43.2184 1.40569 42.6828 1.09624 42.114 0.839463C42.0843 0.826295 42.0578 0.813127 42.0281 0.799959C41.9388 0.760455 41.8462 0.720951 41.757 0.684739C41.7173 0.668279 41.6776 0.651819 41.6379 0.638651C41.552 0.60573 41.4627 0.57281 41.3767 0.53989C41.3304 0.52343 41.2841 0.50697 41.2378 0.493802C41.1519 0.464174 41.0692 0.437838 40.9832 0.411502C40.9303 0.395042 40.8741 0.381874 40.8179 0.365413C40.6857 0.325909 40.5501 0.292989 40.4145 0.260069C40.3352 0.240317 40.2591 0.223857 40.1798 0.207397C40.117 0.194229 40.0508 0.181061 39.988 0.171185C39.9053 0.154725 39.826 0.141557 39.7433 0.128389C39.6805 0.118512 39.6177 0.108636 39.5549 0.0987604C39.4689 0.0855924 39.3796 0.0757163 39.2937 0.0658403C39.2341 0.0592562 39.1746 0.0526722 39.1151 0.0460882C39.0159 0.0362121 38.92 0.0296281 38.8208 0.0230441C38.7712 0.0230441 38.7216 0.0164601 38.6721 0.0131681C38.5233 0.00658403 38.3712 0.00329201 38.2224 0.00329201C37.9281 0.00329201 37.6371 0.0197521 37.3495 0.0460882C37.3495 0.0460882 37.3693 0.0757163 37.4057 0.128389L37.1313 0.0460882C37.1313 0.0460882 40.6195 4.89522 37.6702 8.62837C36.4138 6.89348 34.8366 5.40549 33.0247 4.2467C33.0247 4.2467 33.0214 4.2467 33.018 4.24341C32.8825 4.15452 32.7436 4.07222 32.6047 3.98663C32.5981 3.98334 32.5948 3.98004 32.5882 3.97675C32.4526 3.89445 32.3138 3.81544 32.1782 3.73973C32.1683 3.73314 32.1584 3.72985 32.1518 3.72327C32.0162 3.64755 31.8806 3.57513 31.7418 3.5027C31.7285 3.49612 31.712 3.48953 31.6988 3.47966C31.5665 3.41053 31.431 3.34469 31.2987 3.27885C31.2789 3.26897 31.2623 3.26238 31.2425 3.25251C31.1102 3.18996 30.978 3.12741 30.8457 3.06816C30.8226 3.05828 30.7994 3.0484 30.7763 3.03853C30.6473 2.98256 30.5184 2.92331 30.3861 2.87064C30.3597 2.85747 30.3299 2.84759 30.3035 2.83772C30.1778 2.78504 30.0489 2.73566 29.9199 2.68628C29.8869 2.67311 29.8505 2.65995 29.8174 2.65007C29.6951 2.60398 29.5727 2.55789 29.4471 2.5151C29.4074 2.50193 29.3677 2.48876 29.3248 2.47559C29.2057 2.43609 29.0867 2.39659 28.9644 2.35708C28.9181 2.34391 28.8751 2.33075 28.8288 2.31758C28.7131 2.28137 28.594 2.24515 28.4783 2.21223C28.4287 2.19906 28.3758 2.1859 28.3262 2.17273C28.2138 2.1431 28.0981 2.11018 27.9857 2.08384C27.9294 2.07068 27.8732 2.05751 27.817 2.04434C27.7079 2.018 27.5988 1.99167 27.4897 1.96862C27.4269 1.95546 27.364 1.94229 27.3012 1.92912C27.1954 1.90608 27.0929 1.88632 26.9871 1.86657C26.9177 1.8534 26.8482 1.84353 26.7788 1.83036C26.6796 1.8139 26.5771 1.79415 26.4779 1.77769C26.4019 1.76452 26.3225 1.75794 26.2465 1.74477C26.1506 1.7316 26.058 1.71843 25.9621 1.70526C25.8795 1.69539 25.7968 1.6888 25.7141 1.67893C25.6249 1.66905 25.5323 1.65917 25.443 1.6493C25.3504 1.63942 25.2545 1.63613 25.162 1.62625C25.0793 1.61967 24.9999 1.61309 24.9173 1.6065C24.8049 1.59992 24.6891 1.59663 24.5767 1.59004C24.5139 1.59004 24.4511 1.58346 24.3849 1.58017C24.2064 1.57358 24.0279 1.57358 23.8493 1.57358C23.6708 1.57358 23.4922 1.57358 23.3137 1.58017C23.2508 1.58017 23.188 1.58675 23.1252 1.59004C23.0128 1.59333 22.8971 1.59992 22.7846 1.6065C22.702 1.61309 22.6226 1.61967 22.54 1.62625C22.4474 1.63284 22.3515 1.63942 22.2589 1.6493C22.1696 1.65917 22.0771 1.66905 21.9878 1.67893C21.9051 1.6888 21.8225 1.69539 21.7398 1.70526C21.6439 1.71843 21.5513 1.7316 21.4555 1.74477C21.3794 1.75464 21.3 1.76452 21.224 1.77769C21.1215 1.79415 21.0223 1.81061 20.9231 1.83036C20.8537 1.84353 20.7842 1.8534 20.7148 1.86657C20.609 1.88632 20.5032 1.90937 20.4007 1.92912C20.3379 1.94229 20.2751 1.95546 20.2122 1.96862C20.1031 1.99167 19.994 2.018 19.8849 2.04434C19.8287 2.05751 19.7692 2.07068 19.713 2.08384C19.5972 2.11347 19.4848 2.1431 19.3724 2.17273C19.3228 2.1859 19.2699 2.19906 19.2203 2.21223C19.1013 2.24515 18.9855 2.28137 18.8698 2.31758C18.8235 2.33075 18.7805 2.34391 18.7343 2.35708C18.6152 2.39659 18.4929 2.43609 18.3739 2.47559C18.3342 2.48876 18.2945 2.50193 18.2548 2.5151C18.1292 2.55789 18.0068 2.60398 17.8845 2.65007C17.8514 2.66324 17.8151 2.67311 17.782 2.68628C17.653 2.73566 17.5274 2.78504 17.3985 2.83772C17.372 2.84759 17.3422 2.86076 17.3158 2.87064C17.1835 2.92331 17.0546 2.98256 16.9256 3.03853C16.9025 3.0484 16.8793 3.05828 16.8562 3.06816C16.7239 3.12741 16.5917 3.18996 16.4594 3.25251C16.4396 3.26238 16.4231 3.26897 16.4032 3.27885C16.2677 3.34469 16.1354 3.41382 15.9998 3.48295C15.9866 3.48953 15.9734 3.49612 15.9568 3.5027C15.818 3.57513 15.6824 3.64755 15.5469 3.72327C15.5369 3.72985 15.527 3.73314 15.5204 3.73973C15.3815 3.81544 15.246 3.89774 15.1071 3.97675C15.1005 3.98004 15.0939 3.98334 15.0906 3.98663C14.9517 4.06893 14.8128 4.15452 14.6773 4.24341C14.6773 4.24341 14.674 4.2434 14.6706 4.2467C12.8587 5.40219 11.2816 6.89348 10.0251 8.62837C7.05593 4.89193 10.5475 0.0427962 10.5475 0.0427962L10.2698 0.125096C10.3028 0.0757163 10.326 0.0427962 10.326 0.0427962C10.0383 0.0164601 9.74737 0 9.45309 0C9.301 0 9.15221 0.00329201 9.00342 0.00987604C8.95382 0.00987604 8.90423 0.0164601 8.85463 0.0197521C8.75544 0.0263361 8.65624 0.0329201 8.56036 0.0427962C8.50084 0.0493802 8.44133 0.0559642 8.38181 0.0625482C8.29254 0.0724243 8.20657 0.0823003 8.1206 0.0954684C8.05778 0.105344 7.99496 0.11522 7.93213 0.125096C7.84947 0.138265 7.76681 0.154725 7.68746 0.167893C7.62464 0.181061 7.55851 0.190937 7.49569 0.204105C7.41633 0.220565 7.33698 0.240317 7.26093 0.256777C7.12536 0.289697 6.9898 0.322617 6.85754 0.362121C6.80464 0.378582 6.74843 0.39175 6.69553 0.40821C6.60956 0.434546 6.52359 0.464174 6.44093 0.49051C6.39464 0.50697 6.34835 0.520138 6.30206 0.536598C6.21279 0.566226 6.12682 0.599146 6.04085 0.635359C6.00118 0.651819 5.9615 0.664987 5.92182 0.681447C5.82924 0.717659 5.73997 0.757163 5.6507 0.796667C5.62094 0.809835 5.59449 0.823003 5.56473 0.836171C4.99602 1.09295 4.45707 1.4024 3.9578 1.76123C3.00224 2.44267 2.18225 3.2986 1.5408 4.27962C1.52757 4.29937 1.51765 4.31583 1.50443 4.33558C1.42507 4.46068 1.34902 4.58577 1.27298 4.71087C1.25644 4.73721 1.24322 4.76354 1.22999 4.78659C1.16056 4.91168 1.09112 5.03678 1.02499 5.16517C1.01177 5.1915 0.998543 5.21455 0.985317 5.24088C0.912576 5.38244 0.846447 5.53058 0.783625 5.67543C0.780318 5.68531 0.777012 5.69189 0.770399 5.70177C0.634835 6.0178 0.515804 6.34042 0.413304 6.67291C0.400078 6.71241 0.390159 6.75521 0.376933 6.79471C0.340563 6.91652 0.307498 7.03832 0.27774 7.16013C0.264515 7.21609 0.251289 7.27206 0.238063 7.32802C0.211612 7.43666 0.188467 7.54859 0.168628 7.66051C0.155402 7.72306 0.145483 7.78561 0.135564 7.84816C0.115725 7.9568 0.102499 8.06872 0.0859673 8.17736C0.0793544 8.23991 0.0694351 8.30246 0.0628222 8.36501C0.0495965 8.48352 0.0396772 8.60203 0.0297579 8.72054C0.0264515 8.77651 0.0198386 8.83247 0.0165322 8.88514C0.00661287 9.05962 0 9.2341 0 9.41187C0 10.7451 0.27774 12.0126 0.780318 13.1615C0.879511 13.3919 0.988624 13.6158 1.10766 13.8363C1.16717 13.945 1.22669 14.0536 1.28951 14.1622C2.2616 15.8181 3.72966 17.1481 5.48868 17.9579C5.63416 18.0238 5.77965 18.0896 5.92844 18.1489C6.19626 18.2575 6.474 18.353 6.75504 18.4353H40.9303C41.2114 18.353 41.4858 18.2542 41.757 18.1489C41.9057 18.0896 42.0512 18.0238 42.1967 17.9579C43.9557 17.1481 45.4238 15.8181 46.3959 14.1622C46.4587 14.0536 46.5215 13.945 46.5777 13.8363C46.6968 13.6158 46.8059 13.3919 46.9051 13.1615C47.4076 12.0126 47.6854 10.7451 47.6854 9.41187C47.6854 9.2341 47.6788 9.05962 47.6689 8.88514C47.6689 8.82918 47.6589 8.77322 47.6556 8.72054L47.6523 8.72383Z" fill="#4445ED"/>
</svg>
